<?xml version="1.0" encoding="UTF-8" standalone="no"?>
<svg width="24px" height="24px" viewBox="0 0 24 24" version="1.1" xmlns="http://www.w3.org/2000/svg" xmlns:xlink="http://www.w3.org/1999/xlink" xmlns:sketch="http://www.bohemiancoding.com/sketch/ns">
    <!-- Generator: Sketch 3.2.2 (9983) - http://www.bohemiancoding.com/sketch -->
    <title>Shape</title>
    <desc>Created with Sketch.</desc>
    <defs></defs>
    <g id="Dashboard" stroke="none" stroke-width="1" fill="none" fill-rule="evenodd" sketch:type="MSPage">
        <g id="dashboard" sketch:type="MSArtboardGroup" transform="translate(-308.000000, -1118.000000)" fill="#C5D0D9">
            <g id="Group" sketch:type="MSLayerGroup" transform="translate(134.000000, 835.000000)">
                <g transform="translate(89.000000, 282.000000)" id="Shape" sketch:type="MSShapeGroup">
                    <path d="M88.31296,1.31272 L105.68728,1.31272 C107.33728,1.31272 108.68728,2.53432 108.68728,4.31272 L108.68728,21.68728 C108.68728,23.46592 107.33728,24.68728 105.68728,24.68728 L88.31296,24.68728 C86.66248,24.68728 85.31272,23.46568 85.31272,21.68728 L85.31272,4.31272 C85.31272,2.53432 86.66248,1.31272 88.31296,1.31272 L88.31296,1.31272 L88.31296,1.31272 Z M102.34024,3.90976 C101.76136,3.90976 101.28808,4.38304 101.28808,4.96216 L101.28808,7.48096 C101.28808,8.05984 101.76136,8.53336 102.34024,8.53336 L104.98216,8.53336 C105.5608,8.53336 106.03432,8.05984 106.03432,7.48096 L106.03432,4.96216 C106.03432,4.38304 105.5608,3.90976 104.98216,3.90976 L102.34024,3.90976 L102.34024,3.90976 Z M106.0456,11.1976 L103.98808,11.1976 C104.18272,11.83312 104.28808,12.50632 104.28808,13.20304 C104.28808,17.09104 101.03488,20.24272 97.02232,20.24272 C93.01,20.24272 89.75704,17.09104 89.75704,13.20304 C89.75704,12.50608 89.86216,11.83312 90.05704,11.1976 L87.91024,11.1976 L87.91024,21.07144 C87.91024,21.5824 88.32832,22.00072 88.83952,22.00072 L105.1168,22.00072 C105.62776,22.00072 106.04608,21.58264 106.04608,21.07144 L106.04608,11.1976 L106.0456,11.1976 L106.0456,11.1976 Z M97.02208,8.40064 C94.4296,8.40064 92.32768,10.43704 92.32768,12.94936 C92.32768,15.46168 94.4296,17.49808 97.02208,17.49808 C99.6148,17.49808 101.71696,15.46168 101.71696,12.94936 C101.71696,10.43704 99.61504,8.40064 97.02208,8.40064 L97.02208,8.40064 Z"></path>
                </g>
            </g>
        </g>
    </g>
</svg>