<?xml version="1.0" encoding="UTF-8" standalone="no"?>
<svg width="30px" height="25px" viewBox="0 0 30 25" version="1.1" xmlns="http://www.w3.org/2000/svg" xmlns:xlink="http://www.w3.org/1999/xlink" xmlns:sketch="http://www.bohemiancoding.com/sketch/ns">
    <!-- Generator: Sketch 3.2.2 (9983) - http://www.bohemiancoding.com/sketch -->
    <title>Shape</title>
    <desc>Created with Sketch.</desc>
    <defs></defs>
    <g id="Dashboard" stroke="none" stroke-width="1" fill="none" fill-rule="evenodd" sketch:type="MSPage">
        <g id="dashboard" sketch:type="MSArtboardGroup" transform="translate(-227.000000, -1117.000000)" fill="#C5D0D9">
            <g id="Group" sketch:type="MSLayerGroup" transform="translate(134.000000, 835.000000)">
                <g transform="translate(89.000000, 282.000000)" id="Shape" sketch:type="MSShapeGroup">
                    <path d="M29.8728889,4.5625 C31.0782222,3.8375 32.0008889,2.6875 32.4382222,1.32142857 C31.3093333,1.99285714 30.0595556,2.48035714 28.7297778,2.74464286 C27.6666667,1.60357143 26.1502222,0.892857143 24.472,0.892857143 C21.2488889,0.892857143 18.6355556,3.51785714 18.6355556,6.75357143 C18.6355556,7.2125 18.6871111,7.66071429 18.7866667,8.08928571 C13.9368889,7.84464286 9.63644444,5.51071429 6.75822222,1.96428571 C6.25511111,2.82857143 5.96888889,3.83571429 5.96888889,4.91071429 C5.96888889,6.94464286 7,8.73928571 8.56444444,9.78928571 C7.608,9.75714286 6.70844444,9.49285714 5.92088889,9.05357143 L5.92088889,9.12678571 C5.92088889,11.9660714 7.93333333,14.3357143 10.6017778,14.875 C10.1128889,15.0071429 9.59733333,15.0803571 9.064,15.0803571 C8.68711111,15.0803571 8.32266667,15.0428571 7.96533333,14.9732143 C8.70844444,17.3017857 10.8631111,18.9964286 13.416,19.0446429 C11.4195556,20.6160714 8.90222222,21.5517857 6.168,21.5517857 C5.69688889,21.5517857 5.23288889,21.5232143 4.776,21.4714286 C7.35911111,23.1357143 10.4257778,24.1071429 13.7217778,24.1071429 C24.456,24.1071429 30.3262222,15.175 30.3262222,7.42857143 L30.3066667,6.66964286 C31.4515556,5.84642857 32.4435556,4.81428571 33.224,3.63928571 C32.1768889,4.10535714 31.0533333,4.42142857 29.8728889,4.5625 Z"></path>
                </g>
            </g>
        </g>
    </g>
</svg>